<svg width="18" height="18" viewBox="0 0 18 18" fill="none" xmlns="http://www.w3.org/2000/svg">
<path d="M9.00032 0.272705C6.63021 0.272705 6.33276 0.283069 5.40188 0.325433C4.47282 0.367978 3.83866 0.515069 3.28376 0.730887C2.70978 0.953796 2.22289 1.25198 1.73781 1.73725C1.25237 2.22234 0.954199 2.70925 0.730569 3.28307C0.514212 3.83816 0.366944 4.47252 0.325127 5.40125C0.283492 6.33216 0.272583 6.6298 0.272583 8.99998C0.272583 11.3702 0.283128 11.6667 0.325309 12.5976C0.368035 13.5267 0.515121 14.1609 0.730751 14.7158C0.953835 15.2898 1.25201 15.7767 1.73727 16.2618C2.22216 16.7473 2.70905 17.0462 3.28267 17.2691C3.83793 17.4849 4.47227 17.632 5.40115 17.6745C6.33204 17.7169 6.6293 17.7272 8.99923 17.7272C11.3695 17.7272 11.6661 17.7169 12.5969 17.6745C13.526 17.632 14.1609 17.4849 14.7161 17.2691C15.2899 17.0462 15.7761 16.7473 16.261 16.2618C16.7464 15.7767 17.0446 15.2898 17.2682 14.716C17.4828 14.1609 17.6301 13.5265 17.6737 12.5978C17.7155 11.6669 17.7264 11.3702 17.7264 8.99998C17.7264 6.6298 17.7155 6.33234 17.6737 5.40143C17.6301 4.47234 17.4828 3.83816 17.2682 3.28325C17.0446 2.70925 16.7464 2.22234 16.261 1.73725C15.7756 1.2518 15.2901 0.953614 14.7156 0.730887C14.1593 0.515069 13.5247 0.367978 12.5957 0.325433C11.6648 0.283069 11.3684 0.272705 8.99759 0.272705H9.00032ZM8.21743 1.84543C8.44979 1.84507 8.70905 1.84543 9.00032 1.84543C11.3304 1.84543 11.6066 1.8538 12.5268 1.89561C13.3776 1.93452 13.8394 2.07671 14.1471 2.19616C14.5543 2.35434 14.8447 2.54343 15.15 2.84889C15.4554 3.15434 15.6445 3.44525 15.803 3.85252C15.9225 4.1598 16.0648 4.62161 16.1036 5.47252C16.1454 6.39252 16.1545 6.66889 16.1545 8.99798C16.1545 11.3271 16.1454 11.6034 16.1036 12.5234C16.0646 13.3743 15.9225 13.8362 15.803 14.1434C15.6448 14.5507 15.4554 14.8407 15.15 15.146C14.8445 15.4514 14.5545 15.6405 14.1471 15.7987C13.8398 15.9187 13.3776 16.0605 12.5268 16.0994C11.6068 16.1412 11.3304 16.1503 9.00032 16.1503C6.67003 16.1503 6.39385 16.1412 5.47388 16.0994C4.623 16.0602 4.16119 15.918 3.85338 15.7985C3.44612 15.6403 3.15522 15.4513 2.84978 15.1458C2.54433 14.8403 2.35525 14.5502 2.19671 14.1427C2.07726 13.8354 1.9349 13.3736 1.89617 12.5227C1.85435 11.6027 1.84599 11.3263 1.84599 8.9958C1.84599 6.66525 1.85435 6.39034 1.89617 5.47034C1.93508 4.61943 2.07726 4.15761 2.19671 3.84998C2.35488 3.4427 2.54433 3.1518 2.84978 2.84634C3.15522 2.54089 3.44612 2.3518 3.85338 2.19325C4.16101 2.07325 4.623 1.93143 5.47388 1.89234C6.27895 1.85598 6.59094 1.84507 8.21743 1.84325V1.84543ZM13.6587 3.29452C13.0806 3.29452 12.6115 3.76307 12.6115 4.34143C12.6115 4.91961 13.0806 5.3887 13.6587 5.3887C14.2369 5.3887 14.706 4.91961 14.706 4.34143C14.706 3.76325 14.2369 3.29416 13.6587 3.29416V3.29452ZM9.00032 4.51816C6.5253 4.51816 4.51864 6.52489 4.51864 8.99998C4.51864 11.4751 6.5253 13.4809 9.00032 13.4809C11.4753 13.4809 13.4813 11.4751 13.4813 8.99998C13.4813 6.52489 11.4752 4.51816 9.00014 4.51816H9.00032ZM9.00032 6.09089C10.6068 6.09089 11.9093 7.39325 11.9093 8.99998C11.9093 10.6065 10.6068 11.9091 9.00032 11.9091C7.39364 11.9091 6.09132 10.6065 6.09132 8.99998C6.09132 7.39325 7.39364 6.09089 9.00032 6.09089V6.09089Z" fill="#4B5563"/>
</svg>
